<svg width="207" height="215" viewBox="0 0 207 215" fill="none" xmlns="http://www.w3.org/2000/svg">
<path d="M202.457 144.893C205.857 186.394 145.874 203.191 99.1986 207.015C52.5234 210.838 11.9298 180.295 8.53023 138.794C5.13066 97.2938 -10.6577 52.7269 36.0175 48.9034C82.6927 45.08 199.057 103.393 202.457 144.893Z" fill="#FCFCFC"/>
<path d="M112.377 133.594V119.531C112.377 109.193 103.968 100.784 93.6297 100.781L86.5961 100.777V91.6523C96.3883 85.9688 103.002 75.3914 103.002 63.2812V37.5C103.002 29.2523 96.8758 22.425 88.9399 21.2812V14.0625C88.9399 12.7664 87.8922 11.7188 86.5961 11.7188H67.8461C51.0438 11.7188 37.375 25.3875 37.375 42.1875C37.375 42.1922 37.3774 42.1945 37.3774 42.1992V53.8945V53.918V63.2812C37.3774 75.3961 43.9914 85.9711 53.7836 91.6523L53.786 100.777L46.7782 100.781C46.7688 100.781 46.7641 100.777 46.7547 100.777C41.7414 100.777 37.0328 102.727 33.4914 106.266C29.9524 109.807 28.0024 114.516 28.0047 119.527L28.0024 133.589V133.591V133.594C28.0024 136.179 30.1047 138.281 32.6899 138.281H107.69C110.275 138.281 112.377 136.179 112.377 133.594ZM67.8461 16.4062H84.2524V23.4375C84.2524 24.7336 85.3 25.7812 86.5961 25.7812C93.0578 25.7812 98.3149 31.0383 98.3149 37.5V48.2484L95.2844 45.218C95.2774 45.2109 95.268 45.2086 95.261 45.2016C95.0993 45.0445 94.9047 44.9391 94.7078 44.8336C94.6352 44.7938 94.5719 44.7305 94.4969 44.7C94.3305 44.6344 94.1524 44.625 93.9743 44.5992C93.8524 44.5805 93.7375 44.5336 93.6157 44.5336C93.5102 44.5336 93.4071 44.5805 93.3016 44.5945C93.1024 44.6227 92.9032 44.6437 92.7157 44.7211C92.7063 44.7258 92.6969 44.7234 92.6875 44.7281C92.5868 44.7727 82.2836 49.2188 70.1899 49.2188C58.1407 49.2188 47.793 44.7727 47.6899 44.7281C47.6805 44.7234 47.6711 44.7258 47.6618 44.7211C47.4391 44.6297 47.2071 44.5969 46.9727 44.5734C46.9024 44.5664 46.8344 44.5312 46.7641 44.5312C46.586 44.5312 46.4125 44.5875 46.2344 44.6297C46.1172 44.6578 45.993 44.6531 45.8828 44.6977C45.7914 44.7352 45.7188 44.8102 45.6321 44.857C45.4516 44.9578 45.2688 45.0516 45.1188 45.1992C45.1094 45.2062 45.1 45.2086 45.093 45.2156L42.0625 48.2461V42.1875C42.0649 42.1852 42.0625 42.1805 42.0625 42.1781C42.0672 27.968 53.6313 16.4062 67.8461 16.4062ZM42.0649 63.2812V54.8742L47.3172 49.6242C50.7719 50.9297 59.7696 53.9062 70.1899 53.9062C80.6102 53.9062 89.6078 50.9297 93.0625 49.6242L98.3149 54.8766V63.2812C98.3149 78.7898 85.6985 91.4062 70.1899 91.4062C54.6813 91.4062 42.0649 78.7898 42.0649 63.2812ZM70.1899 96.0938C74.3219 96.0938 78.2618 95.2922 81.9086 93.893V101.866L76.8766 105.227L70.9352 103.238C70.8438 103.207 70.7524 103.221 70.661 103.202C70.5063 103.17 70.3539 103.146 70.1922 103.146C70.0329 103.146 69.8829 103.172 69.7305 103.202C69.6368 103.221 69.543 103.205 69.4493 103.238L63.5102 105.225L58.4782 101.866L58.4758 93.8953C62.118 95.2922 66.0578 96.0938 70.1899 96.0938ZM36.8078 109.58C39.4563 106.931 42.9836 105.469 46.736 105.464C46.743 105.464 46.7477 105.469 46.7547 105.469H46.7571L55.4172 105.464L61.8555 109.763C61.975 109.84 62.1016 109.884 62.2282 109.936C62.3078 109.973 62.3805 110.02 62.4649 110.048C62.6922 110.116 62.9243 110.156 63.1563 110.156H63.1586H63.1657C63.3907 110.154 63.611 110.109 63.8266 110.046C63.8524 110.039 63.8758 110.044 63.9016 110.034L70.1899 107.932L76.4782 110.034C76.5039 110.044 76.5274 110.039 76.5555 110.046C76.7711 110.109 76.9914 110.154 77.2141 110.156H77.2211H77.2235C77.4555 110.156 77.6875 110.116 77.9149 110.046C77.9969 110.02 78.0672 109.973 78.1493 109.938C78.2758 109.884 78.4047 109.84 78.5219 109.763L84.9625 105.464L93.625 105.469H93.6274C101.383 105.469 107.69 111.776 107.69 119.531V133.594H32.6899V133.591V133.589L32.6922 119.527C32.6922 115.767 34.1524 112.235 36.8078 109.58Z" fill="#26647A"/>
<path d="M70.2601 119.531C71.5539 119.531 72.6039 118.484 72.6039 117.188C72.6039 115.891 71.5539 114.844 70.2601 114.844H70.2344C68.9406 114.844 67.9047 115.891 67.9047 117.188C67.9047 118.484 68.9664 119.531 70.2601 119.531Z" fill="#26647A"/>
<path d="M70.2601 128.906C71.5539 128.906 72.6039 127.859 72.6039 126.562C72.6039 125.266 71.5539 124.219 70.2601 124.219H70.2344C68.9406 124.219 67.9047 125.266 67.9047 126.562C67.9047 127.859 68.9664 128.906 70.2601 128.906Z" fill="#26647A"/>
<path d="M170.985 89.0625V82.0359V35.1516V30.4688C170.985 25.2984 166.78 21.0938 161.61 21.0938H133.464C128.294 21.0938 124.089 25.2984 124.089 30.4688V35.1516V82.0359V89.0625C124.089 94.2328 128.294 98.4375 133.464 98.4375H161.61C166.78 98.4375 170.985 94.2328 170.985 89.0625ZM147.602 86.7188C148.895 86.7188 149.945 85.6711 149.945 84.375C149.945 83.0883 148.907 82.05 147.625 82.0359H166.298C166.298 84.6211 164.195 86.7234 161.61 86.7234H133.464C130.879 86.7234 128.777 84.6211 128.777 82.0359H147.555C146.273 82.05 145.248 83.0883 145.248 84.375C145.246 85.6711 146.308 86.7188 147.602 86.7188ZM128.777 30.4688C128.777 27.8836 130.879 25.7812 133.464 25.7812H161.61C164.195 25.7812 166.298 27.8836 166.298 30.4688V35.1516V77.3484H128.777V35.1516V30.4688ZM161.61 93.75H133.464C131.27 93.75 129.437 92.2289 128.929 90.1898C130.277 90.9422 131.809 91.4109 133.464 91.4109H161.61C163.262 91.4109 164.793 90.9445 166.145 90.1898C165.637 92.2289 163.802 93.75 161.61 93.75Z" fill="#26647A"/>
<path d="M145.855 106.155L131.793 120.218C130.877 121.134 130.877 122.616 131.793 123.532L145.855 137.595C146.312 138.052 146.912 138.281 147.512 138.281C148.112 138.281 148.712 138.052 149.17 137.595L163.232 123.532C164.148 122.616 164.148 121.134 163.232 120.218L149.17 106.155C148.255 105.239 146.772 105.239 145.855 106.155ZM147.512 132.623L136.764 121.875L147.512 111.127L158.261 121.875L147.512 132.623Z" fill="#26647A"/>
<path d="M168.217 115.247C167.301 114.33 165.82 114.33 164.903 115.247C163.987 116.163 163.987 117.645 164.903 118.561C166.729 120.387 166.729 123.363 164.903 125.189C163.987 126.105 163.987 127.587 164.903 128.503C165.36 128.96 165.96 129.19 166.56 129.19C167.16 129.19 167.76 128.96 168.217 128.503C171.873 124.849 171.873 118.901 168.217 115.247Z" fill="#26647A"/>
<path d="M169.874 110.276C168.958 111.192 168.958 112.673 169.874 113.59C172.089 115.805 173.31 118.746 173.31 121.875C173.31 125.004 172.089 127.945 169.874 130.16C168.958 131.077 168.958 132.558 169.874 133.474C170.331 133.931 170.931 134.161 171.531 134.161C172.131 134.161 172.731 133.931 173.188 133.474C176.289 130.376 177.998 126.255 177.998 121.875C177.998 117.495 176.289 113.374 173.188 110.276C172.274 109.359 170.791 109.359 169.874 110.276Z" fill="#26647A"/>
<path d="M130.281 115.247C129.365 114.33 127.884 114.33 126.967 115.247C123.311 118.903 123.311 124.849 126.967 128.503C127.424 128.96 128.024 129.19 128.624 129.19C129.224 129.19 129.824 128.96 130.281 128.503C131.198 127.587 131.198 126.105 130.281 125.189C128.455 123.363 128.455 120.387 130.281 118.561C131.195 117.645 131.195 116.163 130.281 115.247Z" fill="#26647A"/>
<path d="M125.31 113.59C126.227 112.673 126.227 111.192 125.31 110.276C124.394 109.359 122.912 109.359 121.996 110.276C118.895 113.374 117.187 117.495 117.187 121.875C117.187 126.255 118.895 130.376 121.996 133.474C122.453 133.931 123.053 134.161 123.653 134.161C124.253 134.161 124.853 133.931 125.31 133.474C126.227 132.558 126.227 131.077 125.31 130.16C123.095 127.945 121.874 125.004 121.874 121.875C121.874 118.746 123.093 115.805 125.31 113.59Z" fill="#26647A"/>
<path d="M147.531 58.5891C148.827 58.5891 149.875 57.5414 149.875 56.2453V51.5578C149.875 50.2617 148.827 49.2141 147.531 49.2141C146.235 49.2141 145.188 50.2617 145.188 51.5578V56.2453C145.188 57.5414 146.235 58.5891 147.531 58.5891Z" fill="#26647A"/>
<path d="M147.623 49.2094C148.916 49.2094 149.966 48.1617 149.966 46.8656C149.966 45.5695 148.916 44.5219 147.623 44.5219H147.597C146.303 44.5219 145.267 45.5695 145.267 46.8656C145.267 48.1617 146.327 49.2094 147.623 49.2094Z" fill="#26647A"/>
<path d="M147.531 67.9641C156.576 67.9641 163.938 60.6023 163.938 51.5578C163.938 42.5133 156.576 35.1516 147.531 35.1516C138.487 35.1516 131.125 42.5133 131.125 51.5578C131.125 60.6023 138.487 67.9641 147.531 67.9641ZM147.531 39.8391C153.993 39.8391 159.25 45.0961 159.25 51.5578C159.25 58.0195 153.993 63.2766 147.531 63.2766C141.07 63.2766 135.812 58.0195 135.812 51.5578C135.812 45.0961 141.07 39.8391 147.531 39.8391Z" fill="#26647A"/>
</svg>
